<?xml version="1.0" standalone="no"?>
<!DOCTYPE svg PUBLIC "-//W3C//DTD SVG 20010904//EN"
 "http://www.w3.org/TR/2001/REC-SVG-20010904/DTD/svg10.dtd">
<svg version="1.0" xmlns="http://www.w3.org/2000/svg"
 width="2048.000000pt" height="2048.000000pt" viewBox="0 0 2048.000000 2048.000000"
 preserveAspectRatio="xMidYMid meet">

<g transform="translate(0.000000,2048.000000) scale(0.100000,-0.100000)"
fill="#000000" stroke="none">
<path d="M9248 18268 c-730 -733 -2941 -2948 -4913 -4923 -1972 -1974 -3585
-3592 -3585 -3595 0 -7 1218 -1224 1229 -1228 5 -2 1920 1908 4255 4245 2334
2336 4542 4545 4906 4908 364 363 666 668 671 677 8 14 -98 124 -606 630 -339
337 -619 614 -623 616 -4 1 -605 -597 -1334 -1330z"/>
<path d="M13999 12970 c-2632 -2629 -5005 -5001 -6419 -6415 l-345 -345 619
-619 c590 -591 620 -619 640 -605 12 8 2232 2225 4933 4926 l4913 4912 -618
618 c-339 340 -620 618 -623 618 -4 0 -1399 -1391 -3100 -3090z"/>
<path d="M11459 15469 c-331 -326 -9689 -9684 -9689 -9689 0 -14 1240 -1243
1247 -1236 100 102 8188 8174 8881 8863 l987 982 -400 393 c-219 216 -500 493
-624 616 -124 122 -230 222 -237 222 -6 0 -81 -68 -165 -151z"/>
<path d="M13210 7156 c-2703 -2703 -4915 -4919 -4915 -4925 0 -5 277 -287 615
-627 l615 -616 4923 4928 4923 4929 -616 613 c-338 336 -619 612 -623 612 -4
0 -2219 -2212 -4922 -4914z"/>
</g>
</svg>
